<svg xmlns="http://www.w3.org/2000/svg" xmlns:xlink="http://www.w3.org/1999/xlink" xmlns:lucid="lucid" width="961" height="644.03"><g transform="translate(400.5 12.5)" lucid:page-tab-id="0_0"><path d="M-500 0h1500v1000H-500z" fill="#fff"/><path d="M-60 8h320v139H-60z" fill="#fff"/><path d="M-60 81v34h320V81" fill="#e6e6e6"/><path d="M-60 48V8h320v40" fill="#1071e5"/><path d="M-60 8h320v139H-60zM-60 48h320" stroke="#333" fill="none"/><use xlink:href="#a" transform="matrix(1,0,0,1,-50,8) translate(0 24.444444444444443)"/><use xlink:href="#b" transform="matrix(1,0,0,1,-55,50.5) translate(0 17.91112)"/><use xlink:href="#c" transform="matrix(1,0,0,1,-55,50.5) translate(87.83723666666668 17.91112)"/><use xlink:href="#d" transform="matrix(1,0,0,1,-55,50.5) translate(124.28670222222225 17.91112)"/><use xlink:href="#e" transform="matrix(1,0,0,1,-55,83.5) translate(0 17.91112)"/><use xlink:href="#f" transform="matrix(1,0,0,1,-55,83.5) translate(114.99779222222224 17.91112)"/><use xlink:href="#g" transform="matrix(1,0,0,1,-55,116.5) translate(0 17.91112)"/><use xlink:href="#c" transform="matrix(1,0,0,1,-55,116.5) translate(90.11872333333335 17.91112)"/><use xlink:href="#h" transform="matrix(1,0,0,1,-55,116.5) translate(126.56818888888891 17.91112)"/><path d="M0 500h280v106H0z" fill="#fff"/><path d="M0 573v33h280v-33" fill="#e6e6e6"/><path d="M0 540v-40h280v40" fill="#1071e5"/><path d="M0 500h280v106H0zM0 540h280" stroke="#333" fill="none"/><use xlink:href="#i" transform="matrix(1,0,0,1,10,500) translate(0 24.444444444444443)"/><use xlink:href="#j" transform="matrix(1,0,0,1,5,542.5) translate(0 17.91112)"/><use xlink:href="#c" transform="matrix(1,0,0,1,5,542.5) translate(143.24477000000002 17.91112)"/><use xlink:href="#k" transform="matrix(1,0,0,1,5,542.5) translate(179.69423555555557 17.91112)"/><use xlink:href="#l" transform="matrix(1,0,0,1,5,575.5) translate(0 17.91112)"/><use xlink:href="#m" transform="matrix(1,0,0,1,5,575.5) translate(131.29412555555558 17.91112)"/><path d="M-380 180h340v172h-340z" fill="#fff"/><path d="M-380 253v34h340v-34M-380 319v33h340v-33" fill="#e6e6e6"/><path d="M-380 220v-40h340v40" fill="#1071e5"/><path d="M-380 180h340v172h-340zM-380 220h340" stroke="#333" fill="none"/><use xlink:href="#n" transform="matrix(1,0,0,1,-370,180) translate(0 24.444444444444443)"/><use xlink:href="#o" transform="matrix(1,0,0,1,-375,222.5) translate(0 17.91112)"/><use xlink:href="#c" transform="matrix(1,0,0,1,-375,222.5) translate(100.92862444444447 17.91112)"/><use xlink:href="#d" transform="matrix(1,0,0,1,-375,222.5) translate(137.37809000000004 17.91112)"/><use xlink:href="#p" transform="matrix(1,0,0,1,-375,255.5) translate(0 17.91112)"/><use xlink:href="#q" transform="matrix(1,0,0,1,-375,255.5) translate(151.93614777777782 17.91112)"/><use xlink:href="#r" transform="matrix(1,0,0,1,-375,288.5) translate(0 17.91112)"/><use xlink:href="#c" transform="matrix(1,0,0,1,-375,288.5) translate(76.97301444444446 17.91112)"/><use xlink:href="#h" transform="matrix(1,0,0,1,-375,288.5) translate(113.42248000000002 17.91112)"/><use xlink:href="#j" transform="matrix(1,0,0,1,-375,321.5) translate(0 17.91112)"/><use xlink:href="#c" transform="matrix(1,0,0,1,-375,321.5) translate(143.24477000000002 17.91112)"/><use xlink:href="#h" transform="matrix(1,0,0,1,-375,321.5) translate(179.69423555555557 17.91112)"/><path d="M240 180h300v139H240z" fill="#fff"/><path d="M240 253v34h300v-34" fill="#e6e6e6"/><path d="M240 220v-40h300v40" fill="#1071e5"/><path d="M240 180h300v139H240zM240 220h300" stroke="#333" fill="none"/><use xlink:href="#s" transform="matrix(1,0,0,1,250,180) translate(0 24.444444444444443)"/><use xlink:href="#g" transform="matrix(1,0,0,1,245,222.5) translate(0 17.91112)"/><use xlink:href="#d" transform="matrix(1,0,0,1,245,222.5) translate(90.11872333333335 17.91112)"/><use xlink:href="#t" transform="matrix(1,0,0,1,245,255.5) translate(0 17.91112)"/><use xlink:href="#m" transform="matrix(1,0,0,1,245,255.5) translate(123.79781222222225 17.91112)"/><use xlink:href="#u" transform="matrix(1,0,0,1,245,288.5) translate(0 17.91112)"/><use xlink:href="#v" transform="matrix(1,0,0,1,245,288.5) translate(115.05211333333335 17.91112)"/><path d="M379.95 97.18l1.9.45 1.8.75 1.68 1.03 1.5 1.28 1.26 1.5 1.02 1.66.75 1.8.45 1.9.16 1.94v20.88h-.96v-20.84l-.14-1.82-.42-1.76-.7-1.67-.94-1.54-1.17-1.38-1.38-1.17-1.54-.95-1.67-.7-1.76-.4-1.82-.16h-71.82v-.94h71.86z" stroke="#333" stroke-width=".05" fill="#333"/><path d="M269.26 99.82l-7.14-2.32 7.14-2.32z" fill="#333"/><path d="M269.26 95.68l-5.6 1.82 5.6 1.82v1l-8.68-2.82 8.68-2.82z" stroke="#333" stroke-width=".05" fill="#333"/><path d="M404.85 163.94L390 178.8l-14.85-14.86 11.75-11.98h6.2z" fill="#fff"/><path d="M405.52 163.95L390 179.47l-15.52-15.52 11.75-12h1.33l-11.74 12L390 178.1l14.18-14.18-11.75-11.98h1.33z" stroke="#333" stroke-width=".05" fill="#333"/><g><use xlink:href="#w" transform="matrix(1,0,0,1,269.2622531104997,86.7) translate(0.004999999999999005 14.4)"/></g><g><use xlink:href="#x" transform="matrix(1,0,0,1,370.075,130.35581833711308) translate(0.004999999999999005 14.4)"/></g><path d="M-140.88 397.34l.75 1.8.45 1.9.16 1.94v174.54l.14 1.82.42 1.75.7 1.67.94 1.54 1.17 1.38 1.38 1.18 1.54.94 1.67.7 1.76.42 1.82.14h35.14v.95h-35.18l-1.93-.14-1.9-.46-1.8-.75-1.68-1.02-1.5-1.27-1.26-1.5-1.02-1.66-.75-1.8-.45-1.9-.16-1.95V403.02l-.14-1.82-.42-1.76-.7-1.67-.15-.25v-1.82zm124 191.72v.95h-39.06v-.94zm-192.27-203.82l.46 1.1.64 1.03.78.92.9.77 1.03.62 1.1.45 1.18.28 1.22.1h20.1v.95h-20.14l-1.32-.1-1.3-.32-1.26-.52-1.15-.7-1.03-.88-.87-1.03-.7-1.15-.53-1.25-.3-1.3-.1-1.32.93-.06.1 1.23z" stroke="#333" stroke-width=".05" fill="#333"/><path d="M-2.12 589.53l-14.26 4.64v-9.27z" fill="#333"/><path d="M-.58 589.53l-16.28 5.3v-10.6zm-15.33 4l12.25-4-12.26-3.98z" stroke="#333" stroke-width=".05" fill="#333"/><path d="M-195.15 368.06L-210 383.2l-14.85-15.14L-210 353.2z" fill="#fff"/><path d="M-194.48 368.05L-210 383.9l-15.52-15.85 15.52-15.5zm-29.7 0l14.18 14.48 14.18-14.47-14.18-14.18z" stroke="#333" stroke-width=".05" fill="#333"/><g><use xlink:href="#w" transform="matrix(1,0,0,1,-92.8388753937119,578.7342144731908) translate(0.004999999999999005 14.4)"/></g><g><use xlink:href="#x" transform="matrix(1,0,0,1,-181.73602616261223,380.20374999999996) translate(0.004999999999999005 14.4)"/></g><path d="M-209.53 163.12h-.94v-5.72h.94zm82.75-89.3h-71.2l-1.82.13-1.76.42-1.67.7-1.54.94-1.38 1.2-1.17 1.36-.95 1.54-.7 1.67-.4 1.76-.16 1.82v50.46h-.94V85.3l.15-1.92.45-1.9.75-1.8 1.03-1.68 1.28-1.5 1.5-1.26 1.66-1.02 1.8-.75 1.9-.46 1.94-.14h71.24z" stroke="#333" stroke-width=".05" fill="#333"/><path d="M-210 177.88l-4.63-14.26h9.26z" fill="#333"/><path d="M-210 179.42l-5.3-16.28h10.6zm-3.98-15.33l3.98 12.25 3.98-12.26z" stroke="#333" stroke-width=".05" fill="#333"/><path d="M-61.2 73.33l-14.86 14.85-10.87-10.65v-8.4l10.87-10.65z" fill="#fff"/><path d="M-60.53 73.33l-15.52 15.52-10.88-10.66v-1.34l10.87 10.65 14.18-14.17-14.18-14.18-10.87 10.65v-1.33l10.88-10.65z" stroke="#333" stroke-width=".05" fill="#333"/><g><use xlink:href="#w" transform="matrix(1,0,0,1,-228.45,135.8051250815551) translate(0.004999999999999005 14.4)"/></g><g><use xlink:href="#x" transform="matrix(1,0,0,1,-126.77643788090506,62.53333333333336) translate(0.004999999999999005 14.4)"/></g><defs><path fill="#fff" d="M212-179c-10-28-35-45-73-45-59 0-87 40-87 99 0 60 29 101 89 101 43 0 62-24 78-52l27 14C228-24 195 4 139 4 59 4 22-46 18-125c-6-104 99-153 187-111 19 9 31 26 39 46" id="y"/><path fill="#fff" d="M24 0v-261h32V0H24" id="z"/><path fill="#fff" d="M24-231v-30h32v30H24zM24 0v-190h32V0H24" id="A"/><path fill="#fff" d="M100-194c63 0 86 42 84 106H49c0 40 14 67 53 68 26 1 43-12 49-29l28 8c-11 28-37 45-77 45C44 4 14-33 15-96c1-61 26-98 85-98zm52 81c6-60-76-77-97-28-3 7-6 17-6 28h103" id="B"/><path fill="#fff" d="M117-194c89-4 53 116 60 194h-32v-121c0-31-8-49-39-48C34-167 62-67 57 0H25l-1-190h30c1 10-1 24 2 32 11-22 29-35 61-36" id="C"/><path fill="#fff" d="M59-47c-2 24 18 29 38 22v24C64 9 27 4 27-40v-127H5v-23h24l9-43h21v43h35v23H59v120" id="D"/><g id="a"><use transform="matrix(0.06172839506172839,0,0,0.06172839506172839,0,0)" xlink:href="#y"/><use transform="matrix(0.06172839506172839,0,0,0.06172839506172839,15.987654320987653,0)" xlink:href="#z"/><use transform="matrix(0.06172839506172839,0,0,0.06172839506172839,20.864197530864196,0)" xlink:href="#A"/><use transform="matrix(0.06172839506172839,0,0,0.06172839506172839,25.74074074074074,0)" xlink:href="#B"/><use transform="matrix(0.06172839506172839,0,0,0.06172839506172839,38.08641975308642,0)" xlink:href="#C"/><use transform="matrix(0.06172839506172839,0,0,0.06172839506172839,50.432098765432094,0)" xlink:href="#D"/><use transform="matrix(0.06172839506172839,0,0,0.06172839506172839,56.60493827160494,0)" xlink:href="#B"/></g><path d="M24-231v-30h32v30H24zM24 0v-190h32V0H24" id="E"/><path d="M85-194c31 0 48 13 60 33l-1-100h32l1 261h-30c-2-10 0-23-3-31C134-8 116 4 85 4 32 4 16-35 15-94c0-66 23-100 70-100zm9 24c-40 0-46 34-46 75 0 40 6 74 45 74 42 0 51-32 51-76 0-42-9-74-50-73" id="F"/><path d="M-5 72V49h209v23H-5" id="G"/><path d="M96-169c-40 0-48 33-48 73s9 75 48 75c24 0 41-14 43-38l32 2c-6 37-31 61-74 61-59 0-76-41-82-99-10-93 101-131 147-64 4 7 5 14 7 22l-32 3c-4-21-16-35-41-35" id="H"/><path d="M24 0v-261h32V0H24" id="I"/><path d="M100-194c63 0 86 42 84 106H49c0 40 14 67 53 68 26 1 43-12 49-29l28 8c-11 28-37 45-77 45C44 4 14-33 15-96c1-61 26-98 85-98zm52 81c6-60-76-77-97-28-3 7-6 17-6 28h103" id="J"/><path d="M117-194c89-4 53 116 60 194h-32v-121c0-31-8-49-39-48C34-167 62-67 57 0H25l-1-190h30c1 10-1 24 2 32 11-22 29-35 61-36" id="K"/><path d="M59-47c-2 24 18 29 38 22v24C64 9 27 4 27-40v-127H5v-23h24l9-43h21v43h35v23H59v120" id="L"/><g id="b"><use transform="matrix(0.05432111111111112,0,0,0.05432111111111112,0,0)" xlink:href="#E"/><use transform="matrix(0.05432111111111112,0,0,0.05432111111111112,4.291367777777778,0)" xlink:href="#F"/><use transform="matrix(0.05432111111111112,0,0,0.05432111111111112,15.155590000000005,0)" xlink:href="#G"/><use transform="matrix(0.05432111111111112,0,0,0.05432111111111112,26.019812222222228,0)" xlink:href="#H"/><use transform="matrix(0.05432111111111112,0,0,0.05432111111111112,35.79761222222223,0)" xlink:href="#I"/><use transform="matrix(0.05432111111111112,0,0,0.05432111111111112,40.08898000000001,0)" xlink:href="#E"/><use transform="matrix(0.05432111111111112,0,0,0.05432111111111112,44.380347777777786,0)" xlink:href="#J"/><use transform="matrix(0.05432111111111112,0,0,0.05432111111111112,55.24457000000001,0)" xlink:href="#K"/><use transform="matrix(0.05432111111111112,0,0,0.05432111111111112,66.10879222222223,0)" xlink:href="#L"/><use transform="matrix(0.05432111111111112,0,0,0.05432111111111112,71.54090333333335,0)" xlink:href="#J"/></g><path d="M33 0v-248h34V0H33" id="M"/><path d="M190 0L58-211 59 0H30v-248h39L202-35l-2-213h31V0h-41" id="N"/><path d="M127-220V0H93v-220H8v-28h204v28h-85" id="O"/><g id="c"><use transform="matrix(0.05432111111111112,0,0,0.05432111111111112,0,0)" xlink:href="#M"/><use transform="matrix(0.05432111111111112,0,0,0.05432111111111112,5.432111111111112,0)" xlink:href="#N"/><use transform="matrix(0.05432111111111112,0,0,0.05432111111111112,19.50127888888889,0)" xlink:href="#O"/></g><path d="M87 75C49 33 22-17 22-94c0-76 28-126 65-167h31c-38 41-64 92-64 168S80 34 118 75H87" id="P"/><path fill="#635dff" d="M30-248c87 1 191-15 191 75 0 78-77 80-158 76V0H30v-248zm33 125c57 0 124 11 124-50 0-59-68-47-124-48v98" id="Q"/><path fill="#635dff" d="M194 0L95-120 63-95V0H30v-248h33v124l119-124h40L117-140 236 0h-42" id="R"/><path d="M33-261c38 41 65 92 65 168S71 34 33 75H2C39 34 66-17 66-93S39-220 2-261h31" id="S"/><g id="d"><use transform="matrix(0.05432111111111112,0,0,0.05432111111111112,0,0)" xlink:href="#P"/><use transform="matrix(0.05432111111111112,0,0,0.05432111111111112,6.464212222222223,0)" xlink:href="#Q"/><use transform="matrix(0.05432111111111112,0,0,0.05432111111111112,19.50127888888889,0)" xlink:href="#R"/><use transform="matrix(0.05432111111111112,0,0,0.05432111111111112,32.53834555555556,0)" xlink:href="#S"/></g><path d="M114-163C36-179 61-72 57 0H25l-1-190h30c1 12-1 29 2 39 6-27 23-49 58-41v29" id="T"/><path d="M141-36C126-15 110 5 73 4 37 3 15-17 15-53c-1-64 63-63 125-63 3-35-9-54-41-54-24 1-41 7-42 31l-33-3c5-37 33-52 76-52 45 0 72 20 72 64v82c-1 20 7 32 28 27v20c-31 9-61-2-59-35zM48-53c0 20 12 33 32 33 41-3 63-29 60-74-43 2-92-5-92 41" id="U"/><path d="M9 0v-24l116-142H16v-24h144v24L44-24h123V0H9" id="V"/><path d="M100-194c62-1 85 37 85 99 1 63-27 99-86 99S16-35 15-95c0-66 28-99 85-99zM99-20c44 1 53-31 53-75 0-43-8-75-51-75s-53 32-53 75 10 74 51 75" id="W"/><path d="M135-143c-3-34-86-38-87 0 15 53 115 12 119 90S17 21 10-45l28-5c4 36 97 45 98 0-10-56-113-15-118-90-4-57 82-63 122-42 12 7 21 19 24 35" id="X"/><g id="e"><use transform="matrix(0.05432111111111112,0,0,0.05432111111111112,0,0)" xlink:href="#T"/><use transform="matrix(0.05432111111111112,0,0,0.05432111111111112,6.464212222222223,0)" xlink:href="#U"/><use transform="matrix(0.05432111111111112,0,0,0.05432111111111112,17.328434444444447,0)" xlink:href="#V"/><use transform="matrix(0.05432111111111112,0,0,0.05432111111111112,27.106234444444446,0)" xlink:href="#U"/><use transform="matrix(0.05432111111111112,0,0,0.05432111111111112,37.97045666666667,0)" xlink:href="#W"/><use transform="matrix(0.05432111111111112,0,0,0.05432111111111112,48.834678888888895,0)" xlink:href="#G"/><use transform="matrix(0.05432111111111112,0,0,0.05432111111111112,59.69890111111112,0)" xlink:href="#X"/><use transform="matrix(0.05432111111111112,0,0,0.05432111111111112,69.47670111111113,0)" xlink:href="#W"/><use transform="matrix(0.05432111111111112,0,0,0.05432111111111112,80.34092333333335,0)" xlink:href="#H"/><use transform="matrix(0.05432111111111112,0,0,0.05432111111111112,90.11872333333335,0)" xlink:href="#E"/><use transform="matrix(0.05432111111111112,0,0,0.05432111111111112,94.41009111111113,0)" xlink:href="#U"/><use transform="matrix(0.05432111111111112,0,0,0.05432111111111112,105.27431333333335,0)" xlink:href="#I"/></g><path d="M137 0h-34L2-248h35l83 218 83-218h36" id="Y"/><path d="M205 0l-28-72H64L36 0H1l101-248h38L239 0h-34zm-38-99l-47-123c-12 45-31 82-46 123h93" id="Z"/><path d="M233-177c-1 41-23 64-60 70L243 0h-38l-65-103H63V0H30v-248c88 3 205-21 203 71zM63-129c60-2 137 13 137-47 0-61-80-42-137-45v92" id="aa"/><path d="M212-179c-10-28-35-45-73-45-59 0-87 40-87 99 0 60 29 101 89 101 43 0 62-24 78-52l27 14C228-24 195 4 139 4 59 4 22-46 18-125c-6-104 99-153 187-111 19 9 31 26 39 46" id="ab"/><path d="M197 0v-115H63V0H30v-248h33v105h134v-105h34V0h-34" id="ac"/><path d="M101-251c82-7 93 87 43 132L82-64C71-53 59-42 53-27h129V0H18c2-99 128-94 128-182 0-28-16-43-45-43s-46 15-49 41l-32-3c6-41 34-60 81-64" id="ad"/><path d="M54-142c48-35 137-8 131 61C196 18 31 33 14-55l32-4c7 23 22 37 52 37 35-1 51-22 54-58 4-55-73-65-99-34H22l8-134h141v27H59" id="ae"/><g id="f"><use transform="matrix(0.05432111111111112,0,0,0.05432111111111112,0,0)" xlink:href="#Y"/><use transform="matrix(0.05432111111111112,0,0,0.05432111111111112,11.570396666666667,0)" xlink:href="#Z"/><use transform="matrix(0.05432111111111112,0,0,0.05432111111111112,24.607463333333335,0)" xlink:href="#aa"/><use transform="matrix(0.05432111111111112,0,0,0.05432111111111112,38.676631111111114,0)" xlink:href="#ab"/><use transform="matrix(0.05432111111111112,0,0,0.05432111111111112,52.74579888888889,0)" xlink:href="#ac"/><use transform="matrix(0.05432111111111112,0,0,0.05432111111111112,66.81496666666668,0)" xlink:href="#Z"/><use transform="matrix(0.05432111111111112,0,0,0.05432111111111112,79.85203333333334,0)" xlink:href="#aa"/><use transform="matrix(0.05432111111111112,0,0,0.05432111111111112,93.92120111111112,0)" xlink:href="#P"/><use transform="matrix(0.05432111111111112,0,0,0.05432111111111112,100.38541333333333,0)" xlink:href="#ad"/><use transform="matrix(0.05432111111111112,0,0,0.05432111111111112,111.24963555555556,0)" xlink:href="#ae"/><use transform="matrix(0.05432111111111112,0,0,0.05432111111111112,122.11385777777777,0)" xlink:href="#ae"/><use transform="matrix(0.05432111111111112,0,0,0.05432111111111112,132.97808,0)" xlink:href="#S"/></g><g id="g"><use transform="matrix(0.05432111111111112,0,0,0.05432111111111112,0,0)" xlink:href="#E"/><use transform="matrix(0.05432111111111112,0,0,0.05432111111111112,4.291367777777778,0)" xlink:href="#F"/><use transform="matrix(0.05432111111111112,0,0,0.05432111111111112,15.155590000000005,0)" xlink:href="#G"/><use transform="matrix(0.05432111111111112,0,0,0.05432111111111112,26.019812222222228,0)" xlink:href="#J"/><use transform="matrix(0.05432111111111112,0,0,0.05432111111111112,36.88403444444445,0)" xlink:href="#X"/><use transform="matrix(0.05432111111111112,0,0,0.05432111111111112,46.66183444444445,0)" xlink:href="#L"/><use transform="matrix(0.05432111111111112,0,0,0.05432111111111112,52.093945555555564,0)" xlink:href="#U"/><use transform="matrix(0.05432111111111112,0,0,0.05432111111111112,62.95816777777779,0)" xlink:href="#F"/><use transform="matrix(0.05432111111111112,0,0,0.05432111111111112,73.82239000000001,0)" xlink:href="#W"/></g><path fill="#fe7070" d="M63-220v92h138v28H63V0H30v-248h175v28H63" id="af"/><path fill="#fe7070" d="M194 0L95-120 63-95V0H30v-248h33v124l119-124h40L117-140 236 0h-42" id="ag"/><g id="h"><use transform="matrix(0.05432111111111112,0,0,0.05432111111111112,0,0)" xlink:href="#P"/><use transform="matrix(0.05432111111111112,0,0,0.05432111111111112,6.464212222222223,0)" xlink:href="#af"/><use transform="matrix(0.05432111111111112,0,0,0.05432111111111112,18.360535555555558,0)" xlink:href="#ag"/><use transform="matrix(0.05432111111111112,0,0,0.05432111111111112,31.397602222222226,0)" xlink:href="#S"/></g><path fill="#fff" d="M127-220V0H93v-220H8v-28h204v28h-85" id="ah"/><path fill="#fff" d="M115-194c55 1 70 41 70 98S169 2 115 4C84 4 66-9 55-30l1 105H24l-1-265h31l2 30c10-21 28-34 59-34zm-8 174c40 0 45-34 45-75s-6-73-45-74c-42 0-51 32-51 76 0 43 10 73 51 73" id="ai"/><path fill="#fff" d="M100-194c62-1 85 37 85 99 1 63-27 99-86 99S16-35 15-95c0-66 28-99 85-99zM99-20c44 1 53-31 53-75 0-43-8-75-51-75s-53 32-53 75 10 74 51 75" id="aj"/><path fill="#fff" d="M101-234c-31-9-42 10-38 44h38v23H63V0H32v-167H5v-23h27c-7-52 17-82 69-68v24" id="ak"/><g id="i"><use transform="matrix(0.06172839506172839,0,0,0.06172839506172839,0,0)" xlink:href="#ah"/><use transform="matrix(0.06172839506172839,0,0,0.06172839506172839,12.716049382716047,0)" xlink:href="#A"/><use transform="matrix(0.06172839506172839,0,0,0.06172839506172839,17.592592592592588,0)" xlink:href="#ai"/><use transform="matrix(0.06172839506172839,0,0,0.06172839506172839,29.938271604938265,0)" xlink:href="#aj"/><use transform="matrix(0.06172839506172839,0,0,0.06172839506172839,42.28395061728394,0)" xlink:href="#ah"/><use transform="matrix(0.06172839506172839,0,0,0.06172839506172839,53.33333333333333,0)" xlink:href="#B"/><use transform="matrix(0.06172839506172839,0,0,0.06172839506172839,65.67901234567901,0)" xlink:href="#z"/><use transform="matrix(0.06172839506172839,0,0,0.06172839506172839,70.55555555555556,0)" xlink:href="#B"/><use transform="matrix(0.06172839506172839,0,0,0.06172839506172839,82.90123456790124,0)" xlink:href="#ak"/><use transform="matrix(0.06172839506172839,0,0,0.06172839506172839,89.07407407407408,0)" xlink:href="#aj"/><use transform="matrix(0.06172839506172839,0,0,0.06172839506172839,101.41975308641976,0)" xlink:href="#C"/><use transform="matrix(0.06172839506172839,0,0,0.06172839506172839,113.76543209876544,0)" xlink:href="#B"/></g><path d="M115-194c55 1 70 41 70 98S169 2 115 4C84 4 66-9 55-30l1 105H24l-1-265h31l2 30c10-21 28-34 59-34zm-8 174c40 0 45-34 45-75s-6-73-45-74c-42 0-51 32-51 76 0 43 10 73 51 73" id="al"/><path d="M101-234c-31-9-42 10-38 44h38v23H63V0H32v-167H5v-23h27c-7-52 17-82 69-68v24" id="am"/><g id="j"><use transform="matrix(0.05432111111111112,0,0,0.05432111111111112,0,0)" xlink:href="#E"/><use transform="matrix(0.05432111111111112,0,0,0.05432111111111112,4.291367777777778,0)" xlink:href="#F"/><use transform="matrix(0.05432111111111112,0,0,0.05432111111111112,15.155590000000005,0)" xlink:href="#G"/><use transform="matrix(0.05432111111111112,0,0,0.05432111111111112,26.019812222222228,0)" xlink:href="#L"/><use transform="matrix(0.05432111111111112,0,0,0.05432111111111112,31.451923333333337,0)" xlink:href="#E"/><use transform="matrix(0.05432111111111112,0,0,0.05432111111111112,35.74329111111112,0)" xlink:href="#al"/><use transform="matrix(0.05432111111111112,0,0,0.05432111111111112,46.607513333333344,0)" xlink:href="#W"/><use transform="matrix(0.05432111111111112,0,0,0.05432111111111112,57.47173555555556,0)" xlink:href="#G"/><use transform="matrix(0.05432111111111112,0,0,0.05432111111111112,68.3359577777778,0)" xlink:href="#L"/><use transform="matrix(0.05432111111111112,0,0,0.05432111111111112,73.7680688888889,0)" xlink:href="#J"/><use transform="matrix(0.05432111111111112,0,0,0.05432111111111112,84.63229111111113,0)" xlink:href="#I"/><use transform="matrix(0.05432111111111112,0,0,0.05432111111111112,88.92365888888891,0)" xlink:href="#J"/><use transform="matrix(0.05432111111111112,0,0,0.05432111111111112,99.78788111111113,0)" xlink:href="#am"/><use transform="matrix(0.05432111111111112,0,0,0.05432111111111112,105.21999222222225,0)" xlink:href="#W"/><use transform="matrix(0.05432111111111112,0,0,0.05432111111111112,116.08421444444446,0)" xlink:href="#K"/><use transform="matrix(0.05432111111111112,0,0,0.05432111111111112,126.94843666666668,0)" xlink:href="#J"/></g><g id="k"><use transform="matrix(0.05432111111111112,0,0,0.05432111111111112,0,0)" xlink:href="#P"/><use transform="matrix(0.05432111111111112,0,0,0.05432111111111112,6.464212222222223,0)" xlink:href="#Q"/><use transform="matrix(0.05432111111111112,0,0,0.05432111111111112,19.50127888888889,0)" xlink:href="#R"/><use transform="matrix(0.05432111111111112,0,0,0.05432111111111112,32.53834555555556,0)" xlink:href="#S"/></g><g id="l"><use transform="matrix(0.05432111111111112,0,0,0.05432111111111112,0,0)" xlink:href="#F"/><use transform="matrix(0.05432111111111112,0,0,0.05432111111111112,10.864222222222224,0)" xlink:href="#J"/><use transform="matrix(0.05432111111111112,0,0,0.05432111111111112,21.72844444444445,0)" xlink:href="#X"/><use transform="matrix(0.05432111111111112,0,0,0.05432111111111112,31.506244444444448,0)" xlink:href="#H"/><use transform="matrix(0.05432111111111112,0,0,0.05432111111111112,41.28404444444445,0)" xlink:href="#T"/><use transform="matrix(0.05432111111111112,0,0,0.05432111111111112,47.74825666666667,0)" xlink:href="#E"/><use transform="matrix(0.05432111111111112,0,0,0.05432111111111112,52.03962444444445,0)" xlink:href="#H"/><use transform="matrix(0.05432111111111112,0,0,0.05432111111111112,61.817424444444455,0)" xlink:href="#U"/><use transform="matrix(0.05432111111111112,0,0,0.05432111111111112,72.68164666666667,0)" xlink:href="#W"/><use transform="matrix(0.05432111111111112,0,0,0.05432111111111112,83.54586888888889,0)" xlink:href="#G"/><use transform="matrix(0.05432111111111112,0,0,0.05432111111111112,94.41009111111111,0)" xlink:href="#L"/><use transform="matrix(0.05432111111111112,0,0,0.05432111111111112,99.84220222222223,0)" xlink:href="#E"/><use transform="matrix(0.05432111111111112,0,0,0.05432111111111112,104.13357,0)" xlink:href="#al"/><use transform="matrix(0.05432111111111112,0,0,0.05432111111111112,114.99779222222224,0)" xlink:href="#W"/></g><path d="M101-251c68 0 85 55 85 127S166 4 100 4C33 4 14-52 14-124c0-73 17-127 87-127zm-1 229c47 0 54-49 54-102s-4-102-53-102c-51 0-55 48-55 102 0 53 5 102 54 102" id="an"/><g id="m"><use transform="matrix(0.05432111111111112,0,0,0.05432111111111112,0,0)" xlink:href="#Y"/><use transform="matrix(0.05432111111111112,0,0,0.05432111111111112,11.570396666666667,0)" xlink:href="#Z"/><use transform="matrix(0.05432111111111112,0,0,0.05432111111111112,24.607463333333335,0)" xlink:href="#aa"/><use transform="matrix(0.05432111111111112,0,0,0.05432111111111112,38.676631111111114,0)" xlink:href="#ab"/><use transform="matrix(0.05432111111111112,0,0,0.05432111111111112,52.74579888888889,0)" xlink:href="#ac"/><use transform="matrix(0.05432111111111112,0,0,0.05432111111111112,66.81496666666668,0)" xlink:href="#Z"/><use transform="matrix(0.05432111111111112,0,0,0.05432111111111112,79.85203333333334,0)" xlink:href="#aa"/><use transform="matrix(0.05432111111111112,0,0,0.05432111111111112,93.92120111111112,0)" xlink:href="#P"/><use transform="matrix(0.05432111111111112,0,0,0.05432111111111112,100.38541333333333,0)" xlink:href="#ae"/><use transform="matrix(0.05432111111111112,0,0,0.05432111111111112,111.24963555555556,0)" xlink:href="#an"/><use transform="matrix(0.05432111111111112,0,0,0.05432111111111112,122.11385777777777,0)" xlink:href="#S"/></g><g id="n"><use transform="matrix(0.06172839506172839,0,0,0.06172839506172839,0,0)" xlink:href="#ah"/><use transform="matrix(0.06172839506172839,0,0,0.06172839506172839,11.049382716049381,0)" xlink:href="#B"/><use transform="matrix(0.06172839506172839,0,0,0.06172839506172839,23.39506172839506,0)" xlink:href="#z"/><use transform="matrix(0.06172839506172839,0,0,0.06172839506172839,28.2716049382716,0)" xlink:href="#B"/><use transform="matrix(0.06172839506172839,0,0,0.06172839506172839,40.61728395061728,0)" xlink:href="#ak"/><use transform="matrix(0.06172839506172839,0,0,0.06172839506172839,46.79012345679012,0)" xlink:href="#aj"/><use transform="matrix(0.06172839506172839,0,0,0.06172839506172839,59.1358024691358,0)" xlink:href="#C"/><use transform="matrix(0.06172839506172839,0,0,0.06172839506172839,71.48148148148148,0)" xlink:href="#B"/></g><g id="o"><use transform="matrix(0.05432111111111112,0,0,0.05432111111111112,0,0)" xlink:href="#E"/><use transform="matrix(0.05432111111111112,0,0,0.05432111111111112,4.291367777777778,0)" xlink:href="#F"/><use transform="matrix(0.05432111111111112,0,0,0.05432111111111112,15.155590000000005,0)" xlink:href="#G"/><use transform="matrix(0.05432111111111112,0,0,0.05432111111111112,26.019812222222228,0)" xlink:href="#L"/><use transform="matrix(0.05432111111111112,0,0,0.05432111111111112,31.451923333333337,0)" xlink:href="#J"/><use transform="matrix(0.05432111111111112,0,0,0.05432111111111112,42.316145555555565,0)" xlink:href="#I"/><use transform="matrix(0.05432111111111112,0,0,0.05432111111111112,46.607513333333344,0)" xlink:href="#J"/><use transform="matrix(0.05432111111111112,0,0,0.05432111111111112,57.47173555555556,0)" xlink:href="#am"/><use transform="matrix(0.05432111111111112,0,0,0.05432111111111112,62.903846666666674,0)" xlink:href="#W"/><use transform="matrix(0.05432111111111112,0,0,0.05432111111111112,73.7680688888889,0)" xlink:href="#K"/><use transform="matrix(0.05432111111111112,0,0,0.05432111111111112,84.63229111111113,0)" xlink:href="#J"/></g><path d="M84 4C-5 8 30-112 23-190h32v120c0 31 7 50 39 49 72-2 45-101 50-169h31l1 190h-30c-1-10 1-25-2-33-11 22-28 36-60 37" id="ao"/><path d="M210-169c-67 3-38 105-44 169h-31v-121c0-29-5-50-35-48C34-165 62-65 56 0H25l-1-190h30c1 10-1 24 2 32 10-44 99-50 107 0 11-21 27-35 58-36 85-2 47 119 55 194h-31v-121c0-29-5-49-35-48" id="ap"/><g id="p"><use transform="matrix(0.05432111111111112,0,0,0.05432111111111112,0,0)" xlink:href="#K"/><use transform="matrix(0.05432111111111112,0,0,0.05432111111111112,10.864222222222224,0)" xlink:href="#ao"/><use transform="matrix(0.05432111111111112,0,0,0.05432111111111112,21.72844444444445,0)" xlink:href="#ap"/><use transform="matrix(0.05432111111111112,0,0,0.05432111111111112,37.97045666666668,0)" xlink:href="#J"/><use transform="matrix(0.05432111111111112,0,0,0.05432111111111112,48.8346788888889,0)" xlink:href="#T"/><use transform="matrix(0.05432111111111112,0,0,0.05432111111111112,55.298891111111125,0)" xlink:href="#W"/><use transform="matrix(0.05432111111111112,0,0,0.05432111111111112,66.16311333333334,0)" xlink:href="#G"/><use transform="matrix(0.05432111111111112,0,0,0.05432111111111112,77.02733555555557,0)" xlink:href="#L"/><use transform="matrix(0.05432111111111112,0,0,0.05432111111111112,82.45944666666668,0)" xlink:href="#J"/><use transform="matrix(0.05432111111111112,0,0,0.05432111111111112,93.3236688888889,0)" xlink:href="#I"/><use transform="matrix(0.05432111111111112,0,0,0.05432111111111112,97.61503666666668,0)" xlink:href="#J"/><use transform="matrix(0.05432111111111112,0,0,0.05432111111111112,108.47925888888891,0)" xlink:href="#am"/><use transform="matrix(0.05432111111111112,0,0,0.05432111111111112,113.91137000000002,0)" xlink:href="#W"/><use transform="matrix(0.05432111111111112,0,0,0.05432111111111112,124.77559222222224,0)" xlink:href="#K"/><use transform="matrix(0.05432111111111112,0,0,0.05432111111111112,135.63981444444448,0)" xlink:href="#J"/></g><path d="M27 0v-27h64v-190l-56 39v-29l58-41h29v221h61V0H27" id="aq"/><g id="q"><use transform="matrix(0.05432111111111112,0,0,0.05432111111111112,0,0)" xlink:href="#Y"/><use transform="matrix(0.05432111111111112,0,0,0.05432111111111112,11.570396666666667,0)" xlink:href="#Z"/><use transform="matrix(0.05432111111111112,0,0,0.05432111111111112,24.607463333333335,0)" xlink:href="#aa"/><use transform="matrix(0.05432111111111112,0,0,0.05432111111111112,38.676631111111114,0)" xlink:href="#ab"/><use transform="matrix(0.05432111111111112,0,0,0.05432111111111112,52.74579888888889,0)" xlink:href="#ac"/><use transform="matrix(0.05432111111111112,0,0,0.05432111111111112,66.81496666666668,0)" xlink:href="#Z"/><use transform="matrix(0.05432111111111112,0,0,0.05432111111111112,79.85203333333334,0)" xlink:href="#aa"/><use transform="matrix(0.05432111111111112,0,0,0.05432111111111112,93.92120111111112,0)" xlink:href="#P"/><use transform="matrix(0.05432111111111112,0,0,0.05432111111111112,100.38541333333333,0)" xlink:href="#aq"/><use transform="matrix(0.05432111111111112,0,0,0.05432111111111112,111.24963555555556,0)" xlink:href="#ae"/><use transform="matrix(0.05432111111111112,0,0,0.05432111111111112,122.11385777777777,0)" xlink:href="#S"/></g><g id="r"><use transform="matrix(0.05432111111111112,0,0,0.05432111111111112,0,0)" xlink:href="#E"/><use transform="matrix(0.05432111111111112,0,0,0.05432111111111112,4.291367777777778,0)" xlink:href="#F"/><use transform="matrix(0.05432111111111112,0,0,0.05432111111111112,15.155590000000005,0)" xlink:href="#G"/><use transform="matrix(0.05432111111111112,0,0,0.05432111111111112,26.019812222222228,0)" xlink:href="#H"/><use transform="matrix(0.05432111111111112,0,0,0.05432111111111112,35.79761222222223,0)" xlink:href="#I"/><use transform="matrix(0.05432111111111112,0,0,0.05432111111111112,40.08898000000001,0)" xlink:href="#E"/><use transform="matrix(0.05432111111111112,0,0,0.05432111111111112,44.380347777777786,0)" xlink:href="#J"/><use transform="matrix(0.05432111111111112,0,0,0.05432111111111112,55.24457000000001,0)" xlink:href="#K"/><use transform="matrix(0.05432111111111112,0,0,0.05432111111111112,66.10879222222223,0)" xlink:href="#L"/></g><path fill="#fff" d="M30 0v-248h187v28H63v79h144v27H63v87h162V0H30" id="ar"/><path fill="#fff" d="M135-143c-3-34-86-38-87 0 15 53 115 12 119 90S17 21 10-45l28-5c4 36 97 45 98 0-10-56-113-15-118-90-4-57 82-63 122-42 12 7 21 19 24 35" id="as"/><path fill="#fff" d="M141-36C126-15 110 5 73 4 37 3 15-17 15-53c-1-64 63-63 125-63 3-35-9-54-41-54-24 1-41 7-42 31l-33-3c5-37 33-52 76-52 45 0 72 20 72 64v82c-1 20 7 32 28 27v20c-31 9-61-2-59-35zM48-53c0 20 12 33 32 33 41-3 63-29 60-74-43 2-92-5-92 41" id="at"/><path fill="#fff" d="M85-194c31 0 48 13 60 33l-1-100h32l1 261h-30c-2-10 0-23-3-31C134-8 116 4 85 4 32 4 16-35 15-94c0-66 23-100 70-100zm9 24c-40 0-46 34-46 75 0 40 6 74 45 74 42 0 51-32 51-76 0-42-9-74-50-73" id="au"/><g id="s"><use transform="matrix(0.06172839506172839,0,0,0.06172839506172839,0,0)" xlink:href="#ar"/><use transform="matrix(0.06172839506172839,0,0,0.06172839506172839,14.814814814814813,0)" xlink:href="#as"/><use transform="matrix(0.06172839506172839,0,0,0.06172839506172839,25.925925925925924,0)" xlink:href="#D"/><use transform="matrix(0.06172839506172839,0,0,0.06172839506172839,32.098765432098766,0)" xlink:href="#at"/><use transform="matrix(0.06172839506172839,0,0,0.06172839506172839,44.44444444444444,0)" xlink:href="#au"/><use transform="matrix(0.06172839506172839,0,0,0.06172839506172839,56.79012345679012,0)" xlink:href="#aj"/></g><g id="t"><use transform="matrix(0.05432111111111112,0,0,0.05432111111111112,0,0)" xlink:href="#K"/><use transform="matrix(0.05432111111111112,0,0,0.05432111111111112,10.864222222222224,0)" xlink:href="#W"/><use transform="matrix(0.05432111111111112,0,0,0.05432111111111112,21.72844444444445,0)" xlink:href="#ap"/><use transform="matrix(0.05432111111111112,0,0,0.05432111111111112,37.97045666666668,0)" xlink:href="#J"/><use transform="matrix(0.05432111111111112,0,0,0.05432111111111112,48.8346788888889,0)" xlink:href="#G"/><use transform="matrix(0.05432111111111112,0,0,0.05432111111111112,59.698901111111134,0)" xlink:href="#J"/><use transform="matrix(0.05432111111111112,0,0,0.05432111111111112,70.56312333333335,0)" xlink:href="#X"/><use transform="matrix(0.05432111111111112,0,0,0.05432111111111112,80.34092333333335,0)" xlink:href="#L"/><use transform="matrix(0.05432111111111112,0,0,0.05432111111111112,85.77303444444446,0)" xlink:href="#U"/><use transform="matrix(0.05432111111111112,0,0,0.05432111111111112,96.63725666666669,0)" xlink:href="#F"/><use transform="matrix(0.05432111111111112,0,0,0.05432111111111112,107.50147888888891,0)" xlink:href="#W"/></g><path d="M177-190C167-65 218 103 67 71c-23-6-38-20-44-43l32-5c15 47 100 32 89-28v-30C133-14 115 1 83 1 29 1 15-40 15-95c0-56 16-97 71-98 29-1 48 16 59 35 1-10 0-23 2-32h30zM94-22c36 0 50-32 50-73 0-42-14-75-50-75-39 0-46 34-46 75s6 73 46 73" id="av"/><g id="u"><use transform="matrix(0.05432111111111112,0,0,0.05432111111111112,0,0)" xlink:href="#X"/><use transform="matrix(0.05432111111111112,0,0,0.05432111111111112,9.777800000000001,0)" xlink:href="#E"/><use transform="matrix(0.05432111111111112,0,0,0.05432111111111112,14.06916777777778,0)" xlink:href="#av"/><use transform="matrix(0.05432111111111112,0,0,0.05432111111111112,24.933390000000003,0)" xlink:href="#I"/><use transform="matrix(0.05432111111111112,0,0,0.05432111111111112,29.224757777777782,0)" xlink:href="#U"/><use transform="matrix(0.05432111111111112,0,0,0.05432111111111112,40.08898000000001,0)" xlink:href="#G"/><use transform="matrix(0.05432111111111112,0,0,0.05432111111111112,50.95320222222223,0)" xlink:href="#J"/><use transform="matrix(0.05432111111111112,0,0,0.05432111111111112,61.817424444444455,0)" xlink:href="#X"/><use transform="matrix(0.05432111111111112,0,0,0.05432111111111112,71.59522444444445,0)" xlink:href="#L"/><use transform="matrix(0.05432111111111112,0,0,0.05432111111111112,77.02733555555557,0)" xlink:href="#U"/><use transform="matrix(0.05432111111111112,0,0,0.05432111111111112,87.89155777777779,0)" xlink:href="#F"/><use transform="matrix(0.05432111111111112,0,0,0.05432111111111112,98.75578000000002,0)" xlink:href="#W"/></g><g id="v"><use transform="matrix(0.05432111111111112,0,0,0.05432111111111112,0,0)" xlink:href="#ab"/><use transform="matrix(0.05432111111111112,0,0,0.05432111111111112,14.06916777777778,0)" xlink:href="#ac"/><use transform="matrix(0.05432111111111112,0,0,0.05432111111111112,28.13833555555556,0)" xlink:href="#Z"/><use transform="matrix(0.05432111111111112,0,0,0.05432111111111112,41.17540222222223,0)" xlink:href="#aa"/><use transform="matrix(0.05432111111111112,0,0,0.05432111111111112,55.24457000000001,0)" xlink:href="#P"/><use transform="matrix(0.05432111111111112,0,0,0.05432111111111112,61.70878222222223,0)" xlink:href="#ad"/><use transform="matrix(0.05432111111111112,0,0,0.05432111111111112,72.57300444444445,0)" xlink:href="#S"/></g><path d="M68-38c1 34 0 65-14 84H32c9-13 17-26 17-46H33v-38h35" id="aw"/><g id="w"><use transform="matrix(0.05,0,0,0.05,0,0)" xlink:href="#P"/><use transform="matrix(0.05,0,0,0.05,5.95,0)" xlink:href="#aq"/><use transform="matrix(0.05,0,0,0.05,15.949999999999998,0)" xlink:href="#aw"/><use transform="matrix(0.05,0,0,0.05,20.95,0)" xlink:href="#aq"/><use transform="matrix(0.05,0,0,0.05,30.950000000000003,0)" xlink:href="#S"/></g><g id="x"><use transform="matrix(0.05,0,0,0.05,0,0)" xlink:href="#P"/><use transform="matrix(0.05,0,0,0.05,5.95,0)" xlink:href="#aq"/><use transform="matrix(0.05,0,0,0.05,15.949999999999998,0)" xlink:href="#aw"/><use transform="matrix(0.05,0,0,0.05,20.95,0)" xlink:href="#N"/><use transform="matrix(0.05,0,0,0.05,33.9,0)" xlink:href="#S"/></g></defs></g></svg>